<?xml version="1.0" encoding="UTF-8" standalone="no"?>
<!-- Created with Inkscape (http://www.inkscape.org/) -->

<svg
   width="216.09999mm"
   height="139.89999mm"
   viewBox="0 0 216.09999 139.89999"
   version="1.1"
   id="svg1"
   inkscape:version="1.3.2 (091e20e, 2023-11-25)"
   sodipodi:docname="Iorganbio-logo_big.svg"
   inkscape:export-filename="Iorganbio-logo_big.png"
   inkscape:export-xdpi="500"
   inkscape:export-ydpi="500"
   xmlns:inkscape="http://www.inkscape.org/namespaces/inkscape"
   xmlns:sodipodi="http://sodipodi.sourceforge.net/DTD/sodipodi-0.dtd"
   xmlns="http://www.w3.org/2000/svg"
   xmlns:svg="http://www.w3.org/2000/svg">
  <sodipodi:namedview
     id="namedview1"
     pagecolor="#ffffff"
     bordercolor="#000000"
     borderopacity="0.25"
     inkscape:showpageshadow="2"
     inkscape:pageopacity="0.0"
     inkscape:pagecheckerboard="0"
     inkscape:deskcolor="#d1d1d1"
     inkscape:document-units="mm"
     inkscape:zoom="0.52813303"
     inkscape:cx="345.55688"
     inkscape:cy="596.44064"
     inkscape:window-width="1728"
     inkscape:window-height="1051"
     inkscape:window-x="0"
     inkscape:window-y="38"
     inkscape:window-maximized="0"
     inkscape:current-layer="layer1" />
  <defs
     id="defs1" />
  <g
     inkscape:label="Layer 1"
     inkscape:groupmode="layer"
     id="layer1"
     transform="translate(3.1058696,-0.40097918)">
    <g
       id="g1"
       transform="matrix(0.93333439,0,0,0.93333439,8.0187231,22.337109)">
      <path
         id="path1-6"
         style="fill:#4b2a4b;stroke-width:0.844993"
         inkscape:label="path1-6"
         d="m 16.278083,34.518226 c -1.800736,0 -3.912986,0.6883 -5.372001,2.06446 l -0.0011,10e-4 c -1.3948955,1.31673 -2.3063455,3.47423 -2.3063455,5.36569 0,1.2308 0.4151,2.55543 1.069566,3.70717 -0.222975,0.37982 -0.392494,0.78856 -0.50376,1.21469 v 16.34529 c 3.76e-4,2.64435 2.1439615,4.78794 4.7883195,4.7883 h 4.650546 c 1.940756,-0.15548 3.594179,-1.47052 4.182548,-3.32646 0.756953,0.62368 1.551766,1.20242 2.415717,1.67532 2.473231,1.35432 5.288758,2.01608 8.15581,2.01608 2.866765,0 5.682505,-0.6617 8.151601,-2.02133 l 0.0011,-0.001 c 0.947804,-0.52197 1.817076,-1.16607 2.634469,-1.86778 0.530236,1.96046 2.239366,3.37327 4.264578,3.52523 h 4.828281 c 1.75355,-0.14775 3.28481,-1.24532 3.98798,-2.85848 l 0.51743,0.76142 c 0.89152,1.31175 2.37463,2.097 3.96064,2.09706 h 5.18586 c 1.69357,-0.0452 3.23726,-0.98177 4.0595,-2.46304 0.42668,0.29152 0.85332,0.58398 1.30829,0.83188 2.46705,1.34429 5.27414,1.9961 8.13373,1.9961 2.00189,0 3.99904,-0.31296 5.92939,-0.91601 h 10e-4 c 0.43569,-0.13615 0.83687,-0.34467 1.25886,-0.51112 0.84305,0.6804 1.89188,1.05485 2.97522,1.06219 h 4.9471 c 1.94925,-1.4e-4 3.70392,-1.1817 4.43704,-2.98784 l 0.636278,-1.5691 h 3.23708 l 0.63627,1.5691 c 0.73311,1.80614 2.4878,2.9877 4.43705,2.98784 h 5.06702 c 0.50072,-0.021 0.99507,-0.12027 1.46499,-0.29446 0.2287,0.11702 0.46645,0.21554 0.71093,0.29446 h 4.76834 c 2.41183,-0.082 4.38591,-1.94558 4.60638,-4.34871 l 2.06655,2.56506 c 0.90928,1.12808 2.28037,1.78386 3.72928,1.78365 h 3.96484 c 0.90525,-0.0997 1.76332,-0.45536 2.47357,-1.0254 0.71024,0.57004 1.56831,0.92574 2.47356,1.0254 h 10.79027 c 3.06137,0 5.89838,-0.5147 8.36511,-2.03501 0.84032,1.20067 2.18414,1.95047 3.64724,2.03501 h 4.82827 c 2.01973,-0.15223 3.72523,-1.55885 4.25933,-3.51262 0.81808,0.69985 1.68696,1.34219 2.63552,1.86148 2.47352,1.35442 5.28955,2.01608 8.15685,2.01608 2.86683,0 5.68256,-0.66172 8.1516,-2.02135 l 0.001,-0.001 c 2.42645,-1.33627 4.47579,-3.30565 5.88837,-5.6791 l 0.001,-0.004 c 1.43912,-2.42215 2.16227,-5.23481 2.16227,-8.0822 0,-2.84701 -0.72288,-5.65961 -2.16227,-8.08219 l -0.001,-0.004 c -1.41291,-2.37373 -3.46211,-4.34273 -5.88837,-5.67907 l -0.001,-10e-4 c -2.46984,-1.35982 -5.28528,-2.0203 -8.1516,-2.0203 -2.86632,0 -5.68181,0.66087 -8.15581,2.01503 h -0.001 c -0.94823,0.51924 -1.81754,1.16075 -2.63552,1.86043 -0.53447,-1.95338 -2.23987,-3.35939 -4.25931,-3.51158 h -4.82829 c -1.62009,0.12679 -3.0654,1.06637 -3.83865,2.49564 -0.0334,-0.025 -0.0578,-0.0627 -0.0916,-0.0873 h -0.001 c -2.50801,-1.82816 -5.51093,-2.40836 -8.67744,-2.40836 H 140.2116 c -0.90524,0.0997 -1.76332,0.45536 -2.47356,1.0254 -0.71026,-0.57004 -1.56831,-0.92576 -2.47356,-1.0254 h -4.76939 c -2.40203,0.0849 -4.36898,1.9372 -4.59796,4.32979 l -2.04132,-2.54087 c -0.90915,-1.1312 -2.28221,-1.78912 -3.73347,-1.78892 h -3.99325 c -2.64435,3.7e-4 -4.78794,2.14395 -4.78832,4.78832 v 3.39169 l -2.33157,-5.31521 c -0.76377,-1.74065 -2.4847,-2.86484 -4.38553,-2.8648 h -4.769398 c -1.90285,4e-5 -3.62514,1.12665 -4.38762,2.87005 l -1.70688,3.90385 c -0.17142,-0.64636 -0.47628,-1.24965 -0.89498,-1.77103 -1.49465,-1.76229 -3.41385,-3.15076 -5.54763,-4.05004 h -10e-4 c -2.13623,-0.89969 -4.46031,-1.31671 -6.83595,-1.31671 -2.87322,0 -5.69051,0.64827 -8.17263,1.98558 -1.46289,0.78798 -2.76668,1.83086 -3.9007,3.03306 -1.1612,-1.35821 -2.54009,-2.53055 -4.14566,-3.27158 l -0.001,-10e-4 c -2.10787,-0.97196 -4.42761,-1.38192 -6.81909,-1.38192 h -9.031861 c -2.025213,0.15203 -3.734346,1.5648 -4.264577,3.52526 -0.817639,-0.70196 -1.686478,-1.34565 -2.634469,-1.8678 l -0.0011,-0.001 c -2.469892,-1.35982 -5.285345,-2.02028 -8.151602,-2.02028 -2.866543,0 -5.682835,0.66053 -8.15686,2.01503 -0.556651,0.3048 -1.087634,0.6523 -1.601714,1.02119 -0.394769,-1.27664 -1.09027,-2.50554 -2.018182,-3.34647 h -0.0013 c -1.474979,-1.33621 -3.539977,-1.96875 -5.301539,-1.96875 z"
         sodipodi:nodetypes="cccscccccccscccccccccccsccccccccccccccccccccscccccsccccsccccsccccccccsccccccccccccccccccsccccsccccscccccc" />
      <g
         id="g2"
         transform="matrix(0.53846217,0,0,0.53846217,8.5988595,34.517946)">
        <path
           d="m 10.386819,17.300152 c -0.9963578,-0.939774 -1.49454,-2.106228 -1.49454,-3.49825 0,-1.390907 0.4981822,-2.557361 1.49454,-3.497888 0.996377,-0.9397889 2.287667,-1.410774 3.874639,-1.410774 1.586595,0 2.878623,0.4514948 3.874984,1.354108 0.996377,0.902989 1.494557,2.031169 1.494557,3.385293 0,1.467079 -0.49818,2.680267 -1.494557,3.639546 -0.996361,0.958919 -2.288389,1.438754 -3.874984,1.438754 -1.586972,0 -2.878262,-0.469886 -3.874639,-1.410789 z M 9.943877,22.942573 H 18.5794 V 53.297914 H 9.943877 Z"
           fill="white"
           id="path1"
           style="fill:#f7f1f7;fill-opacity:1;stroke-width:1.56927"
           inkscape:label="path1" />
        <path
           d="m 35.102437,51.323458 c -3.229559,-1.767784 -5.756869,-4.203762 -7.5835,-7.307151 -1.826787,-3.10339 -2.740103,-6.591721 -2.740103,-10.466407 0,-3.873587 0.913316,-7.363017 2.740103,-10.466406 1.826631,-3.103076 4.353941,-5.538269 7.5835,-7.306712 3.228774,-1.767704 6.85473,-2.651926 10.877398,-2.651926 4.021884,0 7.638738,0.884222 10.849466,2.651926 3.210727,1.768443 5.737723,4.203636 7.583499,7.306712 1.845148,3.103389 2.767879,6.592819 2.767879,10.466406 0,3.874686 -0.922731,7.363017 -2.767879,10.466407 -1.845776,3.103389 -4.372772,5.539367 -7.583499,7.307151 -3.210728,1.768411 -6.827582,2.651439 -10.849466,2.651439 -4.022668,0 -7.648624,-0.883028 -10.877398,-2.651439 z m 17.077115,-6.742685 c 1.844835,-1.072282 3.293428,-2.56764 4.345467,-4.485446 1.051568,-1.91859 1.577588,-4.099876 1.577588,-6.545427 0,-2.444766 -0.52602,-4.626366 -1.577588,-6.544956 -1.052039,-1.918276 -2.500632,-3.413634 -4.345467,-4.485556 -1.845776,-1.07189 -3.912191,-1.608016 -6.199717,-1.608016 -2.288467,0 -4.354882,0.536126 -6.199874,1.608016 -1.845462,1.071922 -3.293427,2.56728 -4.345466,4.485556 -1.051569,1.91859 -1.577588,4.10019 -1.577588,6.544956 0,2.445551 0.526019,4.626837 1.577588,6.545427 1.052039,1.917806 2.500004,3.413164 4.345466,4.485446 1.844992,1.071498 3.911407,1.608032 6.199874,1.608032 2.287526,0 4.353941,-0.536534 6.199717,-1.608032 z"
           fill="white"
           id="path2"
           style="fill:#f7f1f7;fill-opacity:1;stroke-width:1.56927" />
        <path
           d="M 98.621798,53.297914 91.148932,42.295758 H 82.900846 V 53.297914 H 73.933564 V 13.801902 h 16.77252 c 3.431995,0 6.411725,0.583596 8.93982,1.749313 2.527306,1.166455 4.474306,2.821203 5.839886,4.964968 1.36464,2.144141 2.0479,4.683158 2.0479,7.617223 0,2.933908 -0.69158,5.464357 -2.07568,7.588992 -1.38378,2.12542 -3.34898,3.751812 -5.89512,4.880745 l 8.69078,12.694771 z M 96.352162,23.027157 c -1.402928,-1.184831 -3.450826,-1.777246 -6.144321,-1.777246 h -7.306995 v 13.7671 h 7.306995 c 2.693495,0 4.741393,-0.601344 6.144321,-1.805602 1.402143,-1.203317 2.10345,-2.895932 2.10345,-5.078003 0,-2.219105 -0.701307,-3.92145 -2.10345,-5.106249 z"
           fill="white"
           id="path3"
           style="fill:#f7f1f7;fill-opacity:1;stroke-width:1.56927" />
        <path
           d="m 140.80112,32.929097 h 8.19254 v 16.024605 c -2.10345,1.617604 -4.53912,2.858426 -7.30668,3.723879 -2.76773,0.864668 -5.55459,1.297316 -8.35857,1.297316 -4.02298,0 -7.6392,-0.874241 -10.84946,-2.623506 -3.21089,-1.749266 -5.72957,-4.175672 -7.5562,-7.278434 -1.82663,-3.103389 -2.73994,-6.610395 -2.73994,-10.523057 0,-3.911406 0.91331,-7.419668 2.73994,-10.522743 1.82663,-3.103405 4.36383,-5.529403 7.61144,-7.278339 3.24682,-1.749313 6.90008,-2.623962 10.96025,-2.623962 3.39496,0 6.47638,0.583581 9.24426,1.749298 2.76772,1.166454 5.0926,2.859101 6.97447,5.077939 l -5.75687,5.416416 c -2.76772,-2.970912 -6.10776,-4.457137 -10.01917,-4.457137 -2.47254,0 -4.66889,0.527307 -6.58732,1.579691 -1.91906,1.053483 -3.41364,2.538954 -4.48357,4.457544 -1.07071,1.918119 -1.60536,4.118707 -1.60536,6.601293 0,2.445551 0.53465,4.626837 1.60536,6.545427 1.06993,1.917806 2.55509,3.413164 4.45626,4.485446 1.89992,1.071498 4.06849,1.608032 6.50416,1.608032 2.58255,0 4.90742,-0.564467 6.97446,-1.692615 z"
           fill="white"
           id="path4"
           style="fill:#f7f1f7;fill-opacity:1;stroke-width:1.56927" />
        <path
           d="m 182.81489,44.834681 h -17.98981 l -3.43199,8.463233 h -9.18902 l 17.27045,-39.496012 h 8.85696 l 17.32632,39.496012 h -9.41092 z m -2.82312,-6.939785 -6.14369,-15.121616 -6.14527,15.121616 z"
           fill="white"
           id="path5"
           style="fill:#f7f1f7;fill-opacity:1;stroke-width:1.56927" />
        <path
           d="m 235.23637,13.801902 v 39.496012 h -7.36302 L 208.55406,29.318362 v 23.979552 h -8.85539 V 13.801902 h 7.41637 l 19.26437,23.979693 V 13.801902 Z"
           fill="white"
           id="path6"
           style="fill:#f7f1f7;fill-opacity:1;stroke-width:1.56927" />
        <path
           d="m 278.08059,36.342731 c 1.25385,1.674255 1.88156,3.733451 1.88156,6.178218 0,3.461026 -1.31976,6.122195 -3.9577,7.984134 -2.63952,1.86194 -6.48737,2.792831 -11.54199,2.792831 H 244.42445 V 13.801902 h 18.93168 c 4.72193,0 8.34851,0.922119 10.87661,2.764898 2.52809,1.843516 3.79136,4.344572 3.79136,7.504236 0,1.918276 -0.45195,3.63035 -1.35585,5.134339 -0.9039,1.50493 -2.16873,2.68973 -3.79136,3.554554 2.21424,0.715274 3.94828,1.909646 5.2037,3.582802 z M 253.33633,20.685445 v 9.309901 h 8.91189 c 2.21424,0 3.89336,-0.394829 5.03736,-1.1848 1.144,-0.790127 1.71521,-1.955467 1.71521,-3.498374 0,-1.541652 -0.57121,-2.698581 -1.71521,-3.469846 -1.144,-0.770511 -2.82312,-1.156881 -5.03736,-1.156881 z m 15.80413,24.543751 c 1.19892,-0.789657 1.79838,-2.011334 1.79838,-3.667228 0,-3.272714 -2.38058,-4.908678 -7.14018,-4.908678 h -10.46233 v 9.760705 h 10.46233 c 2.36175,0 4.1413,-0.394515 5.3418,-1.184799 z"
           fill="white"
           id="path7"
           style="fill:#f7f1f7;fill-opacity:1;stroke-width:1.56927" />
        <path
           d="m 286.77121,13.801902 h 8.96681 v 39.496012 h -8.96681 z"
           fill="white"
           id="path8"
           style="fill:#f7f1f7;fill-opacity:1;stroke-width:1.56927" />
        <path
           d="m 312.81482,51.323458 c -3.22956,-1.767784 -5.75765,-4.203762 -7.58428,-7.307151 -1.82663,-3.10339 -2.73995,-6.591721 -2.73995,-10.466407 0,-3.873587 0.91332,-7.363017 2.73995,-10.466406 1.82663,-3.103076 4.35472,-5.538269 7.58428,-7.306712 3.22956,-1.767704 6.85458,-2.651926 10.87662,-2.651926 4.02204,0 7.63921,0.884222 10.84993,2.651926 3.21073,1.768443 5.73726,4.203636 7.58429,7.306712 1.84389,3.103389 2.76662,6.592819 2.76662,10.466406 0,3.874686 -0.92273,7.363017 -2.76662,10.466407 -1.84703,3.103389 -4.37356,5.539367 -7.58429,7.307151 -3.21072,1.768411 -6.82789,2.651439 -10.84993,2.651439 -4.02204,0 -7.64706,-0.883028 -10.87662,-2.651439 z m 17.0768,-6.742685 c 1.84547,-1.072282 3.2939,-2.56764 4.34531,-4.485446 1.05142,-1.91859 1.57712,-4.099876 1.57712,-6.545427 0,-2.444766 -0.5257,-4.626366 -1.57712,-6.544956 -1.05141,-1.918276 -2.49984,-3.413634 -4.34531,-4.485556 -1.84546,-1.07189 -3.91219,-1.608016 -6.20018,-1.608016 -2.288,0 -4.35473,0.536126 -6.20019,1.608016 -1.84546,1.071922 -3.29233,2.56728 -4.34374,4.485556 -1.05298,1.91859 -1.57869,4.10019 -1.57869,6.544956 0,2.445551 0.52571,4.626837 1.57869,6.545427 1.05141,1.917806 2.49828,3.413164 4.34374,4.485446 1.84546,1.071498 3.91219,1.608032 6.20019,1.608032 2.28799,0 4.35472,-0.536534 6.20018,-1.608032 z"
           fill="white"
           id="path9"
           style="fill:#f7f1f7;fill-opacity:1;stroke-width:1.56927"
           inkscape:label="path9" />
      </g>
    </g>
  </g>
</svg>
